<svg width="894" height="645" viewBox="0 0 894 645" fill="none" xmlns="http://www.w3.org/2000/svg" role="img" aria-labelledby="title desc">
  <title id="title">Mean group size versus neocortex ratio</title>
  <desc id="desc">Black-and-white Dunbar-style scatter plot with logarithmic x and y axes, a solid trend line, a steeper dashed reference line, open and filled primate points, and a square labeled Humans.</desc>

  <rect width="894" height="645" fill="white"/>

  <g transform="translate(0,8)">
    <line x1="135" y1="540" x2="135" y2="25" stroke="#0F3368" stroke-width="3"/>
    <line x1="135" y1="540" x2="834" y2="540" stroke="#0F3368" stroke-width="3"/>

    <g stroke="#0F3368" stroke-width="3">
      <line x1="135" y1="540" x2="126" y2="540"/>
      <line x1="135" y1="505.52" x2="126" y2="505.52"/>
      <line x1="135" y1="485.35" x2="126" y2="485.35"/>
      <line x1="135" y1="471.04" x2="126" y2="471.04"/>
      <line x1="135" y1="459.93" x2="126" y2="459.93"/>
      <line x1="135" y1="402.07" x2="126" y2="402.07"/>
      <line x1="135" y1="344.21" x2="126" y2="344.21"/>
      <line x1="135" y1="310.36" x2="126" y2="310.36"/>
      <line x1="135" y1="286.35" x2="126" y2="286.35"/>
      <line x1="135" y1="267.73" x2="126" y2="267.73"/>
      <line x1="135" y1="209.87" x2="126" y2="209.87"/>
      <line x1="135" y1="152.01" x2="126" y2="152.01"/>
      <line x1="135" y1="118.16" x2="126" y2="118.16"/>
      <line x1="135" y1="94.15" x2="126" y2="94.15"/>
      <line x1="135" y1="75.53" x2="126" y2="75.53"/>
      <line x1="135" y1="17.67" x2="126" y2="17.67"/>

      <line x1="135" y1="540" x2="135" y2="549"/>
      <line x1="405.41" y1="540" x2="405.41" y2="549"/>
      <line x1="563.59" y1="540" x2="563.59" y2="549"/>
      <line x1="675.82" y1="540" x2="675.82" y2="549"/>
      <line x1="762.87" y1="540" x2="762.87" y2="549"/>
      <line x1="834" y1="540" x2="834" y2="549"/>
    </g>

    <g fill="#0F3368" font-family="Arial, Helvetica, sans-serif" font-size="18" text-anchor="end">
      <text x="120" y="548">1</text>
      <text x="120" y="513">2</text>
      <text x="120" y="493">3</text>
      <text x="120" y="478">4</text>
      <text x="120" y="467">5</text>
      <text x="120" y="409">10</text>
      <text x="120" y="352">20</text>
      <text x="120" y="318">30</text>
      <text x="120" y="294">40</text>
      <text x="120" y="276">50</text>
      <text x="120" y="218">100</text>
      <text x="120" y="160">200</text>
      <text x="120" y="126">300</text>
      <text x="120" y="102">400</text>
      <text x="120" y="84">500</text>
      <text x="120" y="26">1000</text>
    </g>

    <g fill="#0F3368" font-family="Arial, Helvetica, sans-serif" font-size="18" text-anchor="middle">
      <text x="135" y="586">1</text>
      <text x="405.41" y="586">2</text>
      <text x="563.59" y="586">3</text>
      <text x="675.82" y="586">4</text>
      <text x="762.87" y="586">5</text>
      <text x="834" y="586">6</text>
    </g>

    <text x="483" y="616" fill="#0F3368" font-family="Arial, Helvetica, sans-serif" font-size="24" text-anchor="middle">Neocortex ratio (log scale)</text>
    <text transform="translate(41 292) rotate(-90)" fill="#0F3368" font-family="Arial, Helvetica, sans-serif" font-size="24" text-anchor="middle">Mean group size (log scale)</text>

    <line x1="135" y1="540" x2="834" y2="17.67" stroke="#0F3368" stroke-width="2.5"/>
    <line x1="364" y1="540" x2="785" y2="17.67" stroke="#0F3368" stroke-width="2.5" stroke-dasharray="22 16"/>

    <g fill="#0F3368">
      <circle cx="330" cy="405" r="11"/>
      <circle cx="364" cy="374" r="11"/>
      <circle cx="396" cy="388" r="11"/>
      <circle cx="369" cy="418" r="11"/>
      <circle cx="358" cy="435" r="11"/>
      <circle cx="379" cy="447" r="11"/>
      <circle cx="340" cy="443" r="11"/>
      <circle cx="415" cy="340" r="11"/>
      <circle cx="434" cy="383" r="11"/>
      <circle cx="396" cy="285" r="11"/>
      <circle cx="457" cy="306" r="11"/>
      <circle cx="455" cy="276" r="11"/>
      <circle cx="457" cy="271" r="11"/>
      <circle cx="481" cy="330" r="11"/>
      <circle cx="481" cy="321" r="11"/>
      <circle cx="480" cy="224" r="11"/>
      <circle cx="502" cy="303" r="11"/>
      <circle cx="525" cy="263" r="11"/>
      <circle cx="535" cy="244" r="11"/>
      <circle cx="485" cy="335" r="11"/>
      <circle cx="453" cy="330" r="11"/>
    </g>

    <g stroke="#0F3368" stroke-width="2.5" fill="white">
      <circle cx="424" cy="450" r="12.5"/>
      <circle cx="517" cy="393" r="12.5"/>
      <circle cx="591" cy="240" r="12.5"/>
    </g>

    <rect x="669" y="149" width="24" height="24" fill="white" stroke="#0F3368" stroke-width="2.5"/>
    <text x="744" y="173" fill="#0F3368" font-family="Arial, Helvetica, sans-serif" font-size="19">Humans</text>
  </g>
</svg>
