<svg width="900" height="460" viewBox="0 0 900 460" fill="none" xmlns="http://www.w3.org/2000/svg" role="img" aria-labelledby="title desc">
  <title id="title">Estimated relative division of cooperative time</title>
  <desc id="desc">A blue-styled pie chart with a full-width blue banner and left-aligned white title block, showing mutual accommodation at 15 percent, active support at 15 percent, shared coordination at 45 percent, and norm-sustaining cooperation at 25 percent.</desc>

  <rect width="900" height="460" fill="#FFFFFF"/>
  <rect x="0" y="0" width="900" height="120" fill="#0F3368"/>
  <text x="70" y="54" font-family="IBM Plex Sans, Avenir Next, Segoe UI, sans-serif" font-size="28" font-weight="700" fill="#FFFFFF">Estimated Relative Division of Cooperative Time</text>
  <text x="70" y="90" font-family="IBM Plex Sans, Avenir Next, Segoe UI, sans-serif" font-size="18" font-weight="400" fill="#FFFFFF">Modern adult populations in OECD-like time-use-survey settings</text>

  <circle cx="228" cy="280" r="130" fill="#EAF2FB" stroke="#D6E4F5" stroke-width="2"/>
  <path d="M228 280 L228 150 A130 130 0 0 1 351.634 237.023 Z" fill="#78AAE6"/>
  <path d="M228 280 L351.634 237.023 A130 130 0 0 1 304.435 385.337 Z" fill="#5F93D3"/>
  <path d="M228 280 L304.435 385.337 A130 130 0 0 1 98 280 Z" fill="#0F3368"/>
  <path d="M228 280 L98 280 A130 130 0 0 1 228 150 Z" fill="#1C4B8F"/>
  <circle cx="228" cy="280" r="3.5" fill="#0F3368"/>

  <rect x="392" y="166" width="492" height="46" fill="#0F3368"/>
  <text x="420" y="195" font-family="Arial, Helvetica, sans-serif" font-size="18" font-weight="700" fill="#FFFFFF">Form of broad cooperation</text>
  <text x="853" y="195" text-anchor="end" font-family="Arial, Helvetica, sans-serif" font-size="18" font-weight="700" fill="#FFFFFF">Share</text>

  <rect x="392" y="212" width="492" height="52" fill="#FFFFFF" stroke="#D6E4F5"/>
  <rect x="392" y="264" width="492" height="52" fill="#EAF2FB" stroke="#D6E4F5"/>
  <rect x="392" y="316" width="492" height="52" fill="#FFFFFF" stroke="#D6E4F5"/>
  <rect x="392" y="368" width="492" height="52" fill="#EAF2FB" stroke="#D6E4F5"/>

  <rect x="418" y="228" width="16" height="16" fill="#78AAE6"/>
  <rect x="418" y="280" width="16" height="16" fill="#5F93D3"/>
  <rect x="418" y="332" width="16" height="16" fill="#0F3368"/>
  <rect x="418" y="384" width="16" height="16" fill="#1C4B8F"/>

  <text x="448" y="242" font-family="Arial, Helvetica, sans-serif" font-size="20" fill="#1F2D3D">Mutual accommodation</text>
  <text x="448" y="294" font-family="Arial, Helvetica, sans-serif" font-size="20" fill="#1F2D3D">Active support</text>
  <text x="448" y="346" font-family="Arial, Helvetica, sans-serif" font-size="20" fill="#1F2D3D">Shared coordination</text>
  <text x="448" y="398" font-family="Arial, Helvetica, sans-serif" font-size="20" fill="#1F2D3D">Norm-sustaining cooperation</text>

  <text x="853" y="242" text-anchor="end" font-family="Arial, Helvetica, sans-serif" font-size="20" font-weight="700" fill="#0F3368">15%</text>
  <text x="853" y="294" text-anchor="end" font-family="Arial, Helvetica, sans-serif" font-size="20" font-weight="700" fill="#0F3368">15%</text>
  <text x="853" y="346" text-anchor="end" font-family="Arial, Helvetica, sans-serif" font-size="20" font-weight="700" fill="#0F3368">45%</text>
  <text x="853" y="398" text-anchor="end" font-family="Arial, Helvetica, sans-serif" font-size="20" font-weight="700" fill="#0F3368">25%</text>

  <text x="16" y="447" font-family="Arial, Helvetica, sans-serif" font-size="15" fill="#1F2D3D">Provisional empirical working estimate inferred from time-use and social-interaction data.</text>
</svg>
